<svg xmlns="http://www.w3.org/2000/svg" viewBox="0 0 512 512" style="height: 494px; width: 494px;"><defs><filter id="shadow-1" height="300%" width="300%" x="-100%" y="-100%"><feFlood floodColor="rgba(121, 19, 19, 1)" result="flood"></feFlood><feComposite in="flood" in2="SourceGraphic" operator="out" result="composite"></feComposite><feGaussianBlur in="composite" stdDeviation="15" result="blur"></feGaussianBlur><feOffset dx="15" result="offset"></feOffset><feComposite in2="SourceGraphic" in="offset" operator="atop"></feComposite></filter><radialGradient id="delapouite-video-conference-gradient-1"><stop offset="0%" stop-color="#4fd1c5" stop-opacity="1"></stop><stop offset="100%" stop-color="#338cf5" stop-opacity="1"></stop></radialGradient></defs><g className="" transform="translate(0,0)" style=""><path d="M256 23c-22.5 0-41 18.46-41 41s18.5 41 41 41 41-18.46 41-41-18.5-41-41-41zm0 82H41v270h430V105H256zm0-64c12.8 0 23 10.19 23 23s-10.2 23-23 23-23-10.19-23-23 10.2-23 23-23zM64 128h384v224H322.9c-.3-37.8-3.8-100.3-47.9-114a44.51 50 0 0 0 25.6-45.2 44.51 50 0 0 0-44.5-50 44.51 50 0 0 0-44.5 50 44.51 50 0 0 0 25.6 45.2c-44.1 13.7-47.6 76.2-47.9 114H64V128zm133.9 263.5l-12.4 62h138l-12.4-62H197.9zM160 471v18h192v-18H160z" fill="url(#delapouite-video-conference-gradient-1)" filter="url(#shadow-1)"></path></g><g className="" transform="translate(309,316)" style=""><g transform="translate(12.8, 12.8) scale(0.6, 0.6) rotate(0, 128, 128)"><circle cx="128" cy="128" r="128" fill="#9ae6b4" fill-opacity="1"></circle><circle stroke="#00a99d" stroke-opacity="1" fill="#9ae6b4" fill-opacity="1" strokeWidth="18" cx="128" cy="128" r="101"></circle><path fill="#00a99d" fill-opacity="1" d="M64 94l64-38 64 38c0 32-48 108-64 108-16 .25-64-76-64-108z"></path></g></g></svg>