<svg xmlns="http://www.w3.org/2000/svg" viewBox="0 0 150 150" style="width:400px;height:400px"><style>@keyframes email3{0%{transform:translate3d(0,140px,0)}90%{transform:translate3d(0,-200px,0)}}</style><path class="fillCls3" d="M129.042 6.778H20.943v137.324h108.099V6.778z" fill="#FBB5B7" stroke-width="2" style="animation-duration:6s"/><g style="animation-duration:6s;animation:email3 6s 3.2s ease-in infinite;transform:translate3d(0,140px,0)"><path class="fillCls13" d="M43 124.75h23.5V113H43v11.75z" fill="#C572ED" stroke-width="2"/><path class="fillCls14" d="m43 113 11.618 5.875L66.5 113H43z" fill="#DE99FF" stroke-width="2"/></g><path class="fillCls5" d="M50.699 27.025s10.387 6.162 6.866 26.056l-2.465.88s.88-4.753.176-7.746c0 0 .176 6.866-1.408 8.099 0 0-4.05 1.408-7.218.352-3.17-1.057-8.099-.704-8.099-.704s-6.338 1.056-10.387-2.465c-4.05-3.521-2.289-8.099-2.289-8.099l8.627-11.796 7.394-3.52 8.803-1.057z" fill="#C74162" stroke-width="2" style="animation-duration:6s"/><g style="animation-duration:6s;animation:email3 6s 1.7s ease-in infinite;transform:translate3d(0,140px,0)"><path class="fillCls13" d="M110 133.75h23.5V122H110v11.75z" fill="#C572ED" stroke-width="2"/><path class="fillCls14" d="m110 122 11.618 5.875L133.5 122H110z" fill="#DE99FF" stroke-width="2"/></g><g style="animation-duration:6s;animation:email3 6s 2.2s ease-in infinite;transform:translate3d(0,140px,0)"><path class="fillCls13" d="M65 136.75h23.5V125H65v11.75z" fill="#C572ED" stroke-width="2"/><path class="fillCls14" d="m65 125 11.618 5.875L88.5 125H65z" fill="#DE99FF" stroke-width="2"/></g><path class="fillCls7" d="M47.355 50.792s-1.057 7.57.704 7.747c1.76.176 9.33 2.289 10.387 3.345 1.057 1.056-6.338 5.986-6.338 5.986h-15.14l-9.156-2.465-2.464-4.225s9.859-1.057 10.915-3.17c1.056-2.112 1.585-12.147.704-15.316-.88-3.17 10.388 8.098 10.388 8.098z" fill="#F4CF80" stroke-width="2" style="animation-duration:6s"/><path class="fillCls6" d="M52.634 30.898s3.345 9.331 0 16.374c-1.974 4.153-3.884 6.408-5.122 7.56a2.408 2.408 0 0 1-2.785.352c-2.16-1.166-6.098-3.537-6.354-5.446-.352-2.64-.88-6.338-.88-6.338s-2.465 1.76-3.521-.528c-1.056-2.289.352-4.401 3.169-2.993s10.915-10.035 10.915-10.035l4.578 1.054z" fill="#FFDE99" stroke-width="2" style="animation-duration:6s"/><path class="fillCls5" d="M54.923 41.35c.465-2.48.414-5.031-.151-7.492l-.904-3.664s-1.76-3.17-4.225-4.226c-.944-.404-1.232 0-1.232 0-1.296-1.295-4.502-1.658-7.428-1.693-3.879-.044-7.616 1.475-10.328 4.248a37.238 37.238 0 0 0-8.574 13.856c-.873 2.524-1.422 4.743-1.135 5.77.88 3.17 6.69 4.754 6.69 4.754 1.408-.528 4.05-4.401 4.05-4.401-.353 2.113-3.346 4.753-3.346 4.753l3.17.88c4.049-1.584 5.675-10.327 5.675-10.327l-.979.319a1.62 1.62 0 0 1-1.704-.456 2.816 2.816 0 0 1-.695-2.282l.102-.715c.04-.288.176-.556.382-.764a1.36 1.36 0 0 1 1.54-.26c.521.243.988.317 1.615.355-.004 1.113.3 2.16 1.456 2.16 7.077 0 10.773-11.95 10.773-11.95 4.436 2.134 3.841 14.591 3.841 14.591a9.317 9.317 0 0 0 1.407-3.455zm-16.02-.24c-.727.066-1.056-.439-1.184-1.096 5.574.058 10.868-8.764 10.868-8.764-4.754 9.155-7.747 9.683-9.683 9.86z" fill="#C74162" stroke-width="2" style="animation-duration:6s"/><path class="fillCls6" d="M62.848 90.229c.176 0 4.153 3.424 4.153 3.424l2.009-2.368-.529-1.056-4.049-.705-1.584.705z" fill="#FFDE99" stroke-width="2" style="animation-duration:6s"/><path class="fillCls8" d="M26.95 60.976s12.428 8.895 30.324.236c0 0 7.509 3.313 6.98 12.292l-5.633 4.578 2.993 6.338s-.662 5.126-5.352 12.977a3.207 3.207 0 0 0-.032 3.25c2.396 4.169 14.12 25.093 15.067 36.942a23.55 23.55 0 0 1-8.618 4.193l-9.164 2.321H29.044l-3.522-.352 2.201-.616s-.352-19.015 5.106-44.543c0 0-1.057-9.859-3.698-12.676l.177-1.76S22.88 81.25 18.48 82.659c0 0-1.056-22.183 8.47-21.683z" fill="#EECFF8" stroke-width="2" style="animation-duration:6s"/><path class="fillCls6" d="m29.22 84.067-.528 12.148L43.85 86.8a12.967 12.967 0 0 0 2.803-2.345l1.935-2.15h4.401l-1.408 4.93-4.578 3.345s-17.078 16.55-22.183 17.254c-4.642.641-4.752-25.725-4.634-25.769 4.106-1.52 9.036 2.002 9.036 2.002z" fill="#FFDE99" stroke-width="2" style="animation-duration:6s"/><path class="fillCls9" d="M82.08 70.687H55.886c-1.04 0-2.014.518-2.597 1.38l-5.568 17.108a1.014 1.014 0 0 0 .84 1.582h25.927c.868 0 1.678-.43 2.164-1.15L82.68 71.82a.726.726 0 0 0-.6-1.132z" fill="#1B72FF" stroke-width="2" style="animation-duration:6s"/><path class="fillCls6" d="M71.296 90.757V87.94l-2.289-3.697-3.169-3.169s-.704 1.057.353 2.641l-1.233-1.584s-.704.88.176 2.464a42.174 42.174 0 0 0 1.585 2.641l.88 2.641-2.64-3.169-1.233-1.408s-.528.88.704 2.817c1.232 1.936 1.408 2.288 1.408 2.288l-1.936-2.817s-.704.705.176 2.113c.5.8 1.282 1.995 1.866 2.88a3.904 3.904 0 0 0 2.11 1.581 2.614 2.614 0 0 0 1.86-.125l.292-.135a1.877 1.877 0 0 0 1.09-1.704v-1.44z" fill="#FFDE99" stroke-width="2" style="animation-duration:6s"/><path class="fillCls4" d="M93.389 6.867s9.155 45.246 35.563 67.605V6.867H93.389zM44.36 5.37S30.1 40.053 20.946 43.75V6.78l23.415-1.41z" fill="#FEB083" stroke-width="2" style="animation-duration:6s"/><path class="fillCls12" d="M121.855 141.822h-49.24c-.728 0-1.318-.372-1.318-.83v-.052c0-.458.59-.83 1.317-.83h49.241c.728 0 1.318.372 1.318.83v.052c0 .458-.588.83-1.318.83zm8.693-28.516H99.913a.954.954 0 0 0-.909.657l-8.066 24.465a.957.957 0 0 0 .908 1.257h30.636c.413 0 .78-.264.908-.657l8.067-24.465a.957.957 0 0 0-.909-1.257z" fill="#565656" stroke-width="2" style="animation-duration:6s"/><path class="fillCls10" d="M56.106 129.878c.025-.623.043-1.28.053-1.974H42.955c.143 9.585 1.681 12.312 2.252 12.997.185.222.357.454.503.704l.127.217h7.44l.074-.125a6.53 6.53 0 0 1 .574-.817c.372-.46 1.116-1.747 1.645-5.053l.06.003c1.75 0 3.168-1.339 3.168-2.993.002-1.503-1.167-2.741-2.692-2.959zm-.36 4.711c.125-1 .228-2.151.302-3.473.868.174 1.52.878 1.52 1.718 0 .935-.808 1.701-1.822 1.755z" fill="#FA404B" stroke-width="2" style="animation-duration:6s"/><path class="fillCls11" d="M49.557 128.785c3.646 0 6.602-.355 6.602-.793 0-.437-2.956-.792-6.602-.792-3.646 0-6.602.355-6.602.792 0 .438 2.956.793 6.602.793z" fill="#FFF" stroke-width="2" style="animation-duration:6s"/><path class="fillCls1" d="M16.28 0v150h117.605V0H16.279zm115.404 147.271H18.48V2.729h113.204V147.27z" fill="#0061FE" stroke-width="2" style="animation-duration:6s"/><path class="fillCls2" d="M18.479 2.73v144.542h113.204V2.729H18.479zm5.457 5.457h48.416v133.627H23.936V8.187zm102.289 133.627H77.81V8.187h48.415v133.627z" fill="#DEF4FF" stroke-width="2" style="animation-duration:6s"/><g style="animation-duration:6s;animation:email3 6s 3.4s ease-in infinite;transform:translate3d(0,140px,0)"><path class="fillCls13" d="M95 102.445h23.5v-11.75H95v11.75z" fill="#C572ED" stroke-width="2"/><path class="fillCls14" d="m95 90.695 11.618 5.875 11.882-5.875H95z" fill="#DE99FF" stroke-width="2"/></g><g style="animation-duration:6s;animation:email3 6s .9s ease-in infinite;transform:translate3d(0,140px,0)"><path class="fillCls13" d="M69 117.75h23.5V106H69v11.75z" fill="#C572ED" stroke-width="2"/><path class="fillCls14" d="m69 106 11.618 5.875L92.5 106H69z" fill="#DE99FF" stroke-width="2"/></g><g style="animation-duration:6s;animation:email3 6s 2.8s ease-in infinite;transform:translate3d(0,140px,0)"><path class="fillCls13" d="M28 137.75h23.5V126H28v11.75z" fill="#C572ED" stroke-width="2"/><path class="fillCls14" d="m28 126 11.618 5.875L51.5 126H28z" fill="#DE99FF" stroke-width="2"/></g><g style="animation-duration:6s;animation:email3 6s .4s ease-in infinite;transform:translate3d(0,140px,0)"><path class="fillCls13" d="M22 101.75h23.5V90H22v11.75z" fill="#C572ED" stroke-width="2"/><path class="fillCls14" d="m22 90 11.618 5.875L45.5 90H22z" fill="#DE99FF" stroke-width="2"/></g></svg>